# xmcd
#
# Track frame offsets: 
#        150
#        13090
#        24525
#        32085
#        45800
#        55934
#        62890
#        71815
#        80100
#        93545
#        105995
#        120695
#        133970
#        144865
#        154240
#        164215
#        177228
#        186228
#        195378
#        205840
#        213670
#        219885
#        229710
#        237895
#        248395
#
# Disc length: 3450 seconds
#
# Revision: 0
# Processed by: cddbd v1.5.2PL0 Copyright (c) Steve Scherf et al.
# Submitted via: ExactAudioCopyFreeDBPlugin 1.0
#
DISCID=630d7819
DTITLE=Telemann, Georg Philipp (1681-1767) - Deutsche Barock Kammermus
DTITLE=ik (VIII) - Ricercar Consort
DYEAR=2001
DGENRE=Classical
TTITLE0=Quartett g-moll, TWV 43:g2: 1. Lento
TTITLE1=Quartett g-moll, TWV 43:g2: 2. Vivace
TTITLE2=Quartett g-moll, TWV 43:g2: 3. Adagio
TTITLE3=Quartett g-moll, TWV 43:g2: 4. Allegro
TTITLE4=Triosonate a-moll, TWV 42:a7: 1. Andante
TTITLE5=Triosonate a-moll, TWV 42:a7: 2. Allegro
TTITLE6=Triosonate a-moll, TWV 42:a7: 3. Adagio
TTITLE7=Triosonate a-moll, TWV 42:a7: 4. Allegro
TTITLE8=Triosonate e-moll, TWV 42:e2 (Musique de table II): 1. Affettu
TTITLE8=so
TTITLE9=Triosonate e-moll, TWV 42:e2 (Musique de table II): 2. Allegro
TTITLE10=Triosonate e-moll, TWV 42:e2 (Musique de table II): 3. Dolce
TTITLE11=Triosonate e-moll, TWV 42:e2 (Musique de table II): 4. Vivace
TTITLE12=Triosonate g-moll, TWV 42:g1 (Six trios): 1. Adagio
TTITLE13=Triosonate g-moll, TWV 42:g1 (Six trios): 2. Vivace
TTITLE14=Triosonate g-moll, TWV 42:g1 (Six trios): 3. Adagio
TTITLE15=Triosonate g-moll, TWV 42:g1 (Six trios): 4. Allegro (Gigue)
TTITLE16=Triosonate d-moll, TWV 42: d4 (Essercizii musici): 1. Largo
TTITLE17=Triosonate d-moll, TWV 42: d4 (Essercizii musici): 2. Allegro
TTITLE18=Triosonate d-moll, TWV 42: d4 (Essercizii musici): 3. Affettu
TTITLE18=oso
TTITLE19=Triosonate d-moll, TWV 42: d4 (Essercizii musici): 4. Presto
TTITLE20=Deuxième suite h-moll, TWV 43:h1 (Quadri): 1. Prélude. Gaieme
TTITLE20=nt
TTITLE21=Deuxième suite h-moll, TWV 43:h1 (Quadri): 2. Air. Modérément
TTITLE22=Deuxième suite h-moll, TWV 43:h1 (Quadri): 3. Réjouissance
TTITLE23=Deuxième suite h-moll, TWV 43:h1 (Quadri): 4. Courante
TTITLE24=Deuxième suite h-moll, TWV 43:h1 (Quadri): 5. Passepied
EXTD=
EXTT0=
EXTT1=
EXTT2=
EXTT3=
EXTT4=
EXTT5=
EXTT6=
EXTT7=
EXTT8=
EXTT9=
EXTT10=
EXTT11=
EXTT12=
EXTT13=
EXTT14=
EXTT15=
EXTT16=
EXTT17=
EXTT18=
EXTT19=
EXTT20=
EXTT21=
EXTT22=
EXTT23=
EXTT24=
PLAYORDER=
